<?xml version="1.0" encoding="UTF-8"?>
<svg width="82px" height="82px" viewBox="0 0 82 82" version="1.1" xmlns="http://www.w3.org/2000/svg" xmlns:xlink="http://www.w3.org/1999/xlink">
    <title>favicon</title>
    <g id="New-website-(astro)" stroke="none" stroke-width="1" fill="none" fill-rule="evenodd">
        <g id="favicon">
            <rect id="Rectangle" stroke="#343434" fill="#181818" x="0.5" y="0.5" width="81" height="81" rx="24"></rect>
            <g id="Group-5" transform="translate(14, 21)" fill="#FFFFFF" fill-rule="nonzero" opacity="0.99">
                <path d="M5.35419097,9.34312703 C5.35419097,6.10488446 6.96308607,4.618478 13.7415443,4.618478 C17.8824703,4.618478 22.1816472,5.36168093 25.2675602,5.9721693 L26.2170724,1.48640715 C22.5509022,0.637032026 17.908845,0 13.5569165,0 C3.69254495,0 0,3.26478669 0,9.34312703 C0,15.4214674 3.69254495,18.7127961 13.5569165,18.7127961 C17.908845,18.7127961 22.5509022,18.0757644 26.2170724,17.2263893 L25.2675602,12.7406268 C22.1816472,13.3511152 17.8824703,14.0943178 13.7415443,14.0943178 C6.96308607,14.0943178 5.35419097,12.6079127 5.35419097,9.34312703 Z M33.6221233,18.3677368 L33.6221233,13.1122282 L40.4533324,13.1122282 L46.9152832,18.3677368 L53.6409946,18.3677368 L47.7329205,13.6961744 L46.3086522,12.8202558 L47.4691653,12.7937123 C51.4518392,12.4751967 53.7992412,10.5641035 53.7992412,6.58265754 C53.7992412,1.83146541 50.7133296,0.265428999 46.2822751,0.265428999 L28.2679313,0.265428999 L28.2679313,18.3677368 L33.6221233,18.3677368 Z M45.7547701,4.88390764 C47.5219169,4.88390764 48.2604255,5.38822381 48.2604255,7.0073451 C48.2604255,8.49375156 47.5219169,9.07769739 45.7547701,9.07769739 L33.6221233,9.07769739 L33.6221233,4.88390764 L45.7547701,4.88390764 Z" id="Logo"></path>
                <path d="M6.9255239,40 L6.9255239,34.0809176 L25.0719601,34.0809176 L25.0719601,29.8340427 L6.9255239,29.8340427 L6.9255239,26.5161708 L25.5730934,26.5161708 L25.5730934,21.8976922 L1.57133191,21.8976922 L1.57133191,40 L6.9255239,40 Z M37.9901783,26.5161708 L37.9901783,40 L43.3443595,40 L43.3443595,26.5161708 L54,26.5161708 L54,21.8976922 L27.3081606,21.8976922 L27.3081606,26.5161708 L37.9901783,26.5161708 Z" id="Logo-Copy"></path>
            </g>
        </g>
    </g>
</svg>